<?xml version="1.0" encoding="UTF-8" standalone="no"?>
<!DOCTYPE svg PUBLIC "-//W3C//DTD SVG 1.1//EN"
 "http://www.w3.org/Graphics/SVG/1.1/DTD/svg11.dtd">
<!-- Generated by graphviz version 2.43.0 (0)
 -->
<!-- Title: 🏗️ Memoo &#45; Cloud Architecture Pages: 1 -->
<svg width="1875pt" height="2370pt"
 viewBox="36.00 36.00 1839.20 2333.70" xmlns="http://www.w3.org/2000/svg" xmlns:xlink="http://www.w3.org/1999/xlink">
<g id="graph0" class="graph" transform="scale(1 1) rotate(0) translate(93.6 2276.1)">
<title>🏗️ Memoo &#45; Cloud Architecture</title>
<polygon fill="#f8f9fa" stroke="transparent" points="-57.6,57.6 -57.6,-2240.1 1745.6,-2240.1 1745.6,57.6 -57.6,57.6"/>
<text text-anchor="middle" x="844" y="-2159.3" font-family="Segoe UI, Arial" font-size="24.00" fill="#2d3436">🏗️ Memoo &#45; Cloud Architecture</text>
<g id="clust1" class="cluster">
<title>cluster_☁️ &#160;Google Cloud Platform</title>
<path fill="#e5f5fd" stroke="#aeb6be" d="M20,-8C20,-8 1451,-8 1451,-8 1457,-8 1463,-14 1463,-20 1463,-20 1463,-1996 1463,-1996 1463,-2002 1457,-2008 1451,-2008 1451,-2008 20,-2008 20,-2008 14,-2008 8,-2002 8,-1996 8,-1996 8,-20 8,-20 8,-14 14,-8 20,-8"/>
<text text-anchor="middle" x="94.5" y="-1994.4" font-family="Sans-Serif" font-size="12.00" fill="#2d3436">☁️ &#160;Google Cloud Platform</text>
</g>
<g id="clust2" class="cluster">
<title>cluster_🎨 Frontend Layer</title>
<path fill="#ebf3e7" stroke="#aeb6be" d="M517,-615C517,-615 618,-615 618,-615 624,-615 630,-621 630,-627 630,-627 630,-790 630,-790 630,-796 624,-802 618,-802 618,-802 517,-802 517,-802 511,-802 505,-796 505,-790 505,-790 505,-627 505,-627 505,-621 511,-615 517,-615"/>
<text text-anchor="middle" x="567.5" y="-788.4" font-family="Sans-Serif" font-size="12.00" fill="#2d3436">🎨 Frontend Layer</text>
</g>
<g id="clust3" class="cluster">
<title>cluster_⚙️ &#160;Backend Layer</title>
<path fill="#ebf3e7" stroke="#aeb6be" d="M805,-773C805,-773 909,-773 909,-773 915,-773 921,-779 921,-785 921,-785 921,-948 921,-948 921,-954 915,-960 909,-960 909,-960 805,-960 805,-960 799,-960 793,-954 793,-948 793,-948 793,-785 793,-785 793,-779 799,-773 805,-773"/>
<text text-anchor="middle" x="857" y="-946.4" font-family="Sans-Serif" font-size="12.00" fill="#2d3436">⚙️ &#160;Backend Layer</text>
</g>
<g id="clust4" class="cluster">
<title>cluster_🤖 AI Intelligence</title>
<path fill="#ebf3e7" stroke="#aeb6be" d="M1118,-717C1118,-717 1214,-717 1214,-717 1220,-717 1226,-723 1226,-729 1226,-729 1226,-892 1226,-892 1226,-898 1220,-904 1214,-904 1214,-904 1118,-904 1118,-904 1112,-904 1106,-898 1106,-892 1106,-892 1106,-729 1106,-729 1106,-723 1112,-717 1118,-717"/>
<text text-anchor="middle" x="1166" y="-890.4" font-family="Sans-Serif" font-size="12.00" fill="#2d3436">🤖 AI Intelligence</text>
</g>
<g id="clust5" class="cluster">
<title>cluster_🔧 Execution</title>
<path fill="#ebf3e7" stroke="#aeb6be" d="M1127,-405C1127,-405 1204,-405 1204,-405 1210,-405 1216,-411 1216,-417 1216,-417 1216,-580 1216,-580 1216,-586 1210,-592 1204,-592 1204,-592 1127,-592 1127,-592 1121,-592 1115,-586 1115,-580 1115,-580 1115,-417 1115,-417 1115,-411 1121,-405 1127,-405"/>
<text text-anchor="middle" x="1162" y="-578.4" font-family="Sans-Serif" font-size="12.00" fill="#2d3436">🔧 Execution</text>
</g>
<g id="clust6" class="cluster">
<title>cluster_💾 Persistence</title>
<path fill="#ebf3e7" stroke="#aeb6be" d="M1126,-955C1126,-955 1206,-955 1206,-955 1212,-955 1218,-961 1218,-967 1218,-967 1218,-1606 1218,-1606 1218,-1612 1212,-1618 1206,-1618 1206,-1618 1126,-1618 1126,-1618 1120,-1618 1114,-1612 1114,-1606 1114,-1606 1114,-967 1114,-967 1114,-961 1120,-955 1126,-955"/>
<text text-anchor="middle" x="1166" y="-1604.4" font-family="Sans-Serif" font-size="12.00" fill="#2d3436">💾 Persistence</text>
</g>
<g id="clust7" class="cluster">
<title>cluster_🔐 Security &amp; Ops</title>
<path fill="#ebf3e7" stroke="#aeb6be" d="M20,-8C20,-8 1451,-8 1451,-8 1457,-8 1463,-14 1463,-20 1463,-20 1463,-393 1463,-393 1463,-399 1457,-405 1451,-405 1451,-405 20,-405 20,-405 14,-405 8,-399 8,-393 8,-393 8,-20 8,-20 8,-14 14,-8 20,-8"/>
<text text-anchor="middle" x="70" y="-391.4" font-family="Sans-Serif" font-size="12.00" fill="#2d3436">🔐 Security &amp; Ops</text>
</g>
<!-- df2acb96a59c47af8734b519fff6e09f -->
<g id="node1" class="node">
<title>df2acb96a59c47af8734b519fff6e09f</title>
<polygon fill="lightgrey" stroke="transparent" points="109,-2148.5 8,-2148.5 8,-2011.5 109,-2011.5 109,-2148.5"/>
<image xlink:href="/home/n3m/.local/lib/python3.10/site-packages/resources/onprem/client/user.png" width="101px" height="101px" preserveAspectRatio="xMinYMin meet" x="8" y="-2130.5"/>
<text text-anchor="middle" x="58.5" y="-2015.1" font-family="Segoe UI, Arial" font-size="13.00" fill="#2d3436">👥 Users</text>
</g>
<!-- 0fa94923fdca44bdbf7cbd2de2bf286e -->
<g id="node2" class="node">
<title>0fa94923fdca44bdbf7cbd2de2bf286e</title>
<polygon fill="lightgrey" stroke="transparent" points="342,-2146.5 241,-2146.5 241,-2009.5 342,-2009.5 342,-2146.5"/>
<image xlink:href="/home/n3m/.local/lib/python3.10/site-packages/resources/gcp/network/cdn.png" width="101px" height="101px" preserveAspectRatio="xMinYMin meet" x="241" y="-2128.5"/>
<text text-anchor="middle" x="291.5" y="-2013.1" font-family="Segoe UI, Arial" font-size="13.00" fill="#2d3436">🌐 HTTPS</text>
</g>
<!-- df2acb96a59c47af8734b519fff6e09f&#45;&gt;0fa94923fdca44bdbf7cbd2de2bf286e -->
<g id="edge1" class="edge">
<title>df2acb96a59c47af8734b519fff6e09f&#45;&gt;0fa94923fdca44bdbf7cbd2de2bf286e</title>
<path fill="none" stroke="#1f77b4" stroke-width="2.5" d="M109.24,-2099.96C146.37,-2112.31 169.82,-2110.67 231.12,-2094.59"/>
<polygon fill="#1f77b4" stroke="#1f77b4" stroke-width="2.5" points="232.1,-2097.95 240.87,-2092 230.3,-2091.18 232.1,-2097.95"/>
<text text-anchor="middle" x="175" y="-2083.6" font-family="Sans-Serif" font-size="13.00" fill="#2d3436">access</text>
</g>
<!-- 243bf2a32bf7401f9fa807f6d52ac043 -->
<g id="node3" class="node">
<title>243bf2a32bf7401f9fa807f6d52ac043</title>
<polygon fill="lightgrey" stroke="transparent" points="618,-781 517,-781 517,-615 618,-615 618,-781"/>
<image xlink:href="/home/n3m/.local/lib/python3.10/site-packages/resources/gcp/compute/run.png" width="101px" height="101px" preserveAspectRatio="xMinYMin meet" x="517" y="-748.5"/>
<text text-anchor="middle" x="567.5" y="-632.6" font-family="Segoe UI, Arial" font-size="13.00" fill="#2d3436">Next.js</text>
<text text-anchor="middle" x="567.5" y="-618.6" font-family="Segoe UI, Arial" font-size="13.00" fill="#2d3436">Web App</text>
</g>
<!-- 0fa94923fdca44bdbf7cbd2de2bf286e&#45;&gt;243bf2a32bf7401f9fa807f6d52ac043 -->
<g id="edge2" class="edge">
<title>0fa94923fdca44bdbf7cbd2de2bf286e&#45;&gt;243bf2a32bf7401f9fa807f6d52ac043</title>
<path fill="none" stroke="#1f77b4" stroke-width="2.5" d="M280.12,-2009.19C208.75,-1573.73 220.69,-1521.78 528.51,-790.55"/>
<polygon fill="#1f77b4" stroke="#1f77b4" stroke-width="2.5" points="531.83,-791.67 532.49,-781.09 525.38,-788.95 531.83,-791.67"/>
<text text-anchor="middle" x="423.5" y="-1587.6" font-family="Sans-Serif" font-size="13.00" fill="#2d3436">frontend</text>
</g>
<!-- d75f97e1abe043c9b164759c71842cb7 -->
<g id="node4" class="node">
<title>d75f97e1abe043c9b164759c71842cb7</title>
<polygon fill="lightgrey" stroke="transparent" points="907,-939 806,-939 806,-773 907,-773 907,-939"/>
<image xlink:href="/home/n3m/.local/lib/python3.10/site-packages/resources/gcp/compute/run.png" width="101px" height="101px" preserveAspectRatio="xMinYMin meet" x="806" y="-906.5"/>
<text text-anchor="middle" x="856.5" y="-790.6" font-family="Segoe UI, Arial" font-size="13.00" fill="#2d3436">FastAPI</text>
<text text-anchor="middle" x="856.5" y="-776.6" font-family="Segoe UI, Arial" font-size="13.00" fill="#2d3436">Backend</text>
</g>
<!-- 243bf2a32bf7401f9fa807f6d52ac043&#45;&gt;d75f97e1abe043c9b164759c71842cb7 -->
<g id="edge3" class="edge">
<title>243bf2a32bf7401f9fa807f6d52ac043&#45;&gt;d75f97e1abe043c9b164759c71842cb7</title>
<path fill="none" stroke="#2ca02c" stroke-width="2.5" d="M618.24,-706.63C678.92,-718.53 705.42,-734.25 797.98,-808.6"/>
<polygon fill="#2ca02c" stroke="#2ca02c" stroke-width="2.5" points="795.97,-811.46 805.95,-815.01 800.35,-806.01 795.97,-811.46"/>
<text text-anchor="middle" x="711.5" y="-795.6" font-family="Sans-Serif" font-size="13.00" fill="#2d3436">API calls</text>
</g>
<!-- 81fc72590e2449d2831a492b53dc1918 -->
<g id="node13" class="node">
<title>81fc72590e2449d2831a492b53dc1918</title>
<polygon fill="lightgrey" stroke="transparent" points="1463,-383.5 1362,-383.5 1362,-246.5 1463,-246.5 1463,-383.5"/>
<image xlink:href="/home/n3m/.local/lib/python3.10/site-packages/resources/gcp/operations/logging.png" width="101px" height="101px" preserveAspectRatio="xMinYMin meet" x="1362" y="-365.5"/>
<text text-anchor="middle" x="1412.5" y="-250.1" font-family="Segoe UI, Arial" font-size="13.00" fill="#2d3436">Logging</text>
</g>
<!-- 243bf2a32bf7401f9fa807f6d52ac043&#45;&gt;81fc72590e2449d2831a492b53dc1918 -->
<g id="edge18" class="edge">
<title>243bf2a32bf7401f9fa807f6d52ac043&#45;&gt;81fc72590e2449d2831a492b53dc1918</title>
<path fill="none" stroke="#555555" stroke-width="1.5" stroke-dasharray="1,5" d="M618.11,-657.94C1012.02,-346.33 1047.26,-327.56 1351.83,-316.97"/>
<polygon fill="#555555" stroke="#555555" stroke-width="1.5" points="1351.97,-320.46 1361.84,-316.63 1351.73,-313.47 1351.97,-320.46"/>
<text text-anchor="middle" x="1013.5" y="-1976.6" font-family="Sans-Serif" font-size="13.00" fill="#2d3436">logs</text>
</g>
<!-- 91ab04f823a146cb9ed4dddc07d93122 -->
<g id="node14" class="node">
<title>91ab04f823a146cb9ed4dddc07d93122</title>
<polygon fill="lightgrey" stroke="transparent" points="1463,-174.5 1362,-174.5 1362,-37.5 1463,-37.5 1463,-174.5"/>
<image xlink:href="/home/n3m/.local/lib/python3.10/site-packages/resources/gcp/operations/monitoring.png" width="101px" height="101px" preserveAspectRatio="xMinYMin meet" x="1362" y="-156.5"/>
<text text-anchor="middle" x="1412.5" y="-41.1" font-family="Segoe UI, Arial" font-size="13.00" fill="#2d3436">Monitoring</text>
</g>
<!-- 243bf2a32bf7401f9fa807f6d52ac043&#45;&gt;91ab04f823a146cb9ed4dddc07d93122 -->
<g id="edge21" class="edge">
<title>243bf2a32bf7401f9fa807f6d52ac043&#45;&gt;91ab04f823a146cb9ed4dddc07d93122</title>
<path fill="none" stroke="#555555" stroke-width="1.5" stroke-dasharray="1,5" d="M618.16,-643.95C1009.76,-226.42 1045.01,-198.74 1351.45,-121.28"/>
<polygon fill="#555555" stroke="#555555" stroke-width="1.5" points="1352.69,-124.58 1361.53,-118.74 1350.98,-117.79 1352.69,-124.58"/>
<text text-anchor="middle" x="1013.5" y="-647.6" font-family="Sans-Serif" font-size="13.00" fill="#2d3436">metrics</text>
</g>
<!-- f4d4315e975947d888975e3ab44bd027 -->
<g id="node5" class="node">
<title>f4d4315e975947d888975e3ab44bd027</title>
<polygon fill="lightgrey" stroke="transparent" points="1216,-883 1115,-883 1115,-717 1216,-717 1216,-883"/>
<image xlink:href="/home/n3m/.local/lib/python3.10/site-packages/resources/gcp/ml/vertex-ai.png" width="101px" height="101px" preserveAspectRatio="xMinYMin meet" x="1115" y="-850.5"/>
<text text-anchor="middle" x="1165.5" y="-734.6" font-family="Segoe UI, Arial" font-size="13.00" fill="#2d3436">Gemini</text>
<text text-anchor="middle" x="1165.5" y="-720.6" font-family="Segoe UI, Arial" font-size="13.00" fill="#2d3436">Vertex AI</text>
</g>
<!-- d75f97e1abe043c9b164759c71842cb7&#45;&gt;f4d4315e975947d888975e3ab44bd027 -->
<g id="edge4" class="edge">
<title>d75f97e1abe043c9b164759c71842cb7&#45;&gt;f4d4315e975947d888975e3ab44bd027</title>
<path fill="none" stroke="#ff7f0e" stroke-width="2.8" d="M907.41,-834.61C1015.68,-789.48 1046.56,-780.53 1104.71,-788.78"/>
<polygon fill="#ff7f0e" stroke="#ff7f0e" stroke-width="2.8" points="1104.28,-792.26 1114.7,-790.32 1105.34,-785.34 1104.28,-792.26"/>
<text text-anchor="middle" x="1013.5" y="-859.6" font-family="Sans-Serif" font-size="13.00" fill="#2d3436">generate code</text>
</g>
<!-- 804d7c34749f44aca07ce05c47a78d98 -->
<g id="node6" class="node">
<title>804d7c34749f44aca07ce05c47a78d98</title>
<polygon fill="lightgrey" stroke="transparent" points="1216,-571 1115,-571 1115,-405 1216,-405 1216,-571"/>
<image xlink:href="/home/n3m/.local/lib/python3.10/site-packages/resources/gcp/compute/compute-engine.png" width="101px" height="101px" preserveAspectRatio="xMinYMin meet" x="1115" y="-538.5"/>
<text text-anchor="middle" x="1165.5" y="-422.6" font-family="Segoe UI, Arial" font-size="13.00" fill="#2d3436">Sandbox VM</text>
<text text-anchor="middle" x="1165.5" y="-408.6" font-family="Segoe UI, Arial" font-size="13.00" fill="#2d3436">Browser Automation</text>
</g>
<!-- d75f97e1abe043c9b164759c71842cb7&#45;&gt;804d7c34749f44aca07ce05c47a78d98 -->
<g id="edge6" class="edge">
<title>d75f97e1abe043c9b164759c71842cb7&#45;&gt;804d7c34749f44aca07ce05c47a78d98</title>
<path fill="none" stroke="#d62728" stroke-width="2.5" d="M907.14,-783.88C1017.91,-626.47 1048.46,-586.91 1107.13,-536.16"/>
<polygon fill="#d62728" stroke="#d62728" stroke-width="2.5" points="1109.5,-538.74 1114.83,-529.58 1104.95,-533.42 1109.5,-538.74"/>
<text text-anchor="middle" x="1013.5" y="-520.6" font-family="Sans-Serif" font-size="13.00" fill="#2d3436">execute</text>
</g>
<!-- 2249cdb6e1334a5caba187afed99e77b -->
<g id="node7" class="node">
<title>2249cdb6e1334a5caba187afed99e77b</title>
<polygon fill="lightgrey" stroke="transparent" points="1216,-1121 1115,-1121 1115,-955 1216,-955 1216,-1121"/>
<image xlink:href="/home/n3m/.local/lib/python3.10/site-packages/resources/gcp/database/sql.png" width="101px" height="101px" preserveAspectRatio="xMinYMin meet" x="1115" y="-1088.5"/>
<text text-anchor="middle" x="1165.5" y="-972.6" font-family="Segoe UI, Arial" font-size="13.00" fill="#2d3436">PostgreSQL</text>
<text text-anchor="middle" x="1165.5" y="-958.6" font-family="Segoe UI, Arial" font-size="13.00" fill="#2d3436">Cloud SQL</text>
</g>
<!-- d75f97e1abe043c9b164759c71842cb7&#45;&gt;2249cdb6e1334a5caba187afed99e77b -->
<g id="edge7" class="edge">
<title>d75f97e1abe043c9b164759c71842cb7&#45;&gt;2249cdb6e1334a5caba187afed99e77b</title>
<path fill="none" stroke="#9467bd" stroke-width="2.2" d="M907.07,-867.44C1026.53,-894.85 1061.96,-907.84 1108.19,-962.24"/>
<polygon fill="#9467bd" stroke="#9467bd" stroke-width="2.2" points="1105.72,-964.74 1114.8,-970.2 1111.1,-960.27 1105.72,-964.74"/>
<text text-anchor="middle" x="1013.5" y="-1041.6" font-family="Sans-Serif" font-size="13.00" fill="#2d3436">query/persist</text>
</g>
<!-- 4862ab701fd941ed8b02a8755daf01e2 -->
<g id="node8" class="node">
<title>4862ab701fd941ed8b02a8755daf01e2</title>
<polygon fill="lightgrey" stroke="transparent" points="1216,-1359 1115,-1359 1115,-1193 1216,-1193 1216,-1359"/>
<image xlink:href="/home/n3m/.local/lib/python3.10/site-packages/resources/gcp/storage/storage.png" width="101px" height="101px" preserveAspectRatio="xMinYMin meet" x="1115" y="-1326.5"/>
<text text-anchor="middle" x="1165.5" y="-1210.6" font-family="Segoe UI, Arial" font-size="13.00" fill="#2d3436">Evidence</text>
<text text-anchor="middle" x="1165.5" y="-1196.6" font-family="Segoe UI, Arial" font-size="13.00" fill="#2d3436">Cloud Storage</text>
</g>
<!-- d75f97e1abe043c9b164759c71842cb7&#45;&gt;4862ab701fd941ed8b02a8755daf01e2 -->
<g id="edge8" class="edge">
<title>d75f97e1abe043c9b164759c71842cb7&#45;&gt;4862ab701fd941ed8b02a8755daf01e2</title>
<path fill="none" stroke="#8c564b" stroke-width="2.2" d="M907,-896.06C1077.41,-1031.67 1110.66,-1065.73 1142.73,-1183.06"/>
<polygon fill="#8c564b" stroke="#8c564b" stroke-width="2.2" points="1139.36,-1184.03 1145.33,-1192.78 1146.12,-1182.22 1139.36,-1184.03"/>
<text text-anchor="middle" x="1013.5" y="-1206.6" font-family="Sans-Serif" font-size="13.00" fill="#2d3436">store evidence</text>
</g>
<!-- a93cb4799a4546e9bd77ea983b1f4667 -->
<g id="node9" class="node">
<title>a93cb4799a4546e9bd77ea983b1f4667</title>
<polygon fill="lightgrey" stroke="transparent" points="1216,-1597 1115,-1597 1115,-1431 1216,-1431 1216,-1597"/>
<image xlink:href="/home/n3m/.local/lib/python3.10/site-packages/resources/gcp/security/secret-manager.png" width="101px" height="101px" preserveAspectRatio="xMinYMin meet" x="1115" y="-1564.5"/>
<text text-anchor="middle" x="1165.5" y="-1448.6" font-family="Segoe UI, Arial" font-size="13.00" fill="#2d3436">Secrets</text>
<text text-anchor="middle" x="1165.5" y="-1434.6" font-family="Segoe UI, Arial" font-size="13.00" fill="#2d3436">Manager</text>
</g>
<!-- d75f97e1abe043c9b164759c71842cb7&#45;&gt;a93cb4799a4546e9bd77ea983b1f4667 -->
<g id="edge9" class="edge">
<title>d75f97e1abe043c9b164759c71842cb7&#45;&gt;a93cb4799a4546e9bd77ea983b1f4667</title>
<path fill="none" stroke="#e377c2" stroke-width="2.2" d="M907.16,-931.28C1097.89,-1215.18 1128.51,-1269.5 1152.35,-1420.73"/>
<polygon fill="#e377c2" stroke="#e377c2" stroke-width="2.2" points="1148.93,-1421.49 1153.91,-1430.84 1155.85,-1420.42 1148.93,-1421.49"/>
<text text-anchor="middle" x="1013.5" y="-1407.6" font-family="Sans-Serif" font-size="13.00" fill="#2d3436">fetch secrets</text>
</g>
<!-- d75f97e1abe043c9b164759c71842cb7&#45;&gt;81fc72590e2449d2831a492b53dc1918 -->
<g id="edge19" class="edge">
<title>d75f97e1abe043c9b164759c71842cb7&#45;&gt;81fc72590e2449d2831a492b53dc1918</title>
<path fill="none" stroke="#555555" stroke-width="1.5" stroke-dasharray="1,5" d="M907.06,-798.86C1178.85,-491.8 1217.51,-451.35 1353.6,-355.85"/>
<polygon fill="#555555" stroke="#555555" stroke-width="1.5" points="1355.67,-358.67 1361.86,-350.07 1351.66,-352.94 1355.67,-358.67"/>
<text text-anchor="middle" x="1165.5" y="-1902.6" font-family="Sans-Serif" font-size="13.00" fill="#2d3436">logs</text>
</g>
<!-- d75f97e1abe043c9b164759c71842cb7&#45;&gt;91ab04f823a146cb9ed4dddc07d93122 -->
<g id="edge22" class="edge">
<title>d75f97e1abe043c9b164759c71842cb7&#45;&gt;91ab04f823a146cb9ed4dddc07d93122</title>
<path fill="none" stroke="#555555" stroke-width="1.5" stroke-dasharray="1,5" d="M907.22,-779.58C1181.59,-366.27 1220.23,-311.3 1354.75,-167.32"/>
<polygon fill="#555555" stroke="#555555" stroke-width="1.5" points="1357.37,-169.65 1361.65,-159.95 1352.26,-164.86 1357.37,-169.65"/>
<text text-anchor="middle" x="1165.5" y="-1744.6" font-family="Sans-Serif" font-size="13.00" fill="#2d3436">metrics</text>
</g>
<!-- f4d4315e975947d888975e3ab44bd027&#45;&gt;d75f97e1abe043c9b164759c71842cb7 -->
<g id="edge5" class="edge">
<title>f4d4315e975947d888975e3ab44bd027&#45;&gt;d75f97e1abe043c9b164759c71842cb7</title>
<path fill="none" stroke="#ff7f0e" stroke-width="2.8" d="M907.04,-834.77C1015.67,-789.48 1046.53,-780.51 1104.81,-788.8"/>
<polygon fill="#ff7f0e" stroke="#ff7f0e" stroke-width="2.8" points="1104.4,-792.27 1114.81,-790.34 1105.46,-785.36 1104.4,-792.27"/>
<text text-anchor="middle" x="1013.5" y="-768.6" font-family="Sans-Serif" font-size="13.00" fill="#2d3436">AI responses</text>
</g>
<!-- 804d7c34749f44aca07ce05c47a78d98&#45;&gt;81fc72590e2449d2831a492b53dc1918 -->
<g id="edge20" class="edge">
<title>804d7c34749f44aca07ce05c47a78d98&#45;&gt;81fc72590e2449d2831a492b53dc1918</title>
<path fill="none" stroke="#555555" stroke-width="1.5" stroke-dasharray="1,5" d="M1216.35,-443.7C1289.55,-380.21 1317.3,-358.24 1352.72,-340.59"/>
<polygon fill="#555555" stroke="#555555" stroke-width="1.5" points="1354.42,-343.65 1361.92,-336.17 1351.39,-337.34 1354.42,-343.65"/>
<text text-anchor="middle" x="1294" y="-1822.6" font-family="Sans-Serif" font-size="13.00" fill="#2d3436">logs</text>
</g>
<!-- 804d7c34749f44aca07ce05c47a78d98&#45;&gt;91ab04f823a146cb9ed4dddc07d93122 -->
<g id="edge23" class="edge">
<title>804d7c34749f44aca07ce05c47a78d98&#45;&gt;91ab04f823a146cb9ed4dddc07d93122</title>
<path fill="none" stroke="#555555" stroke-width="1.5" stroke-dasharray="1,5" d="M1216.11,-407.04C1297.23,-277.32 1326.7,-230.82 1359.23,-182.88"/>
<polygon fill="#555555" stroke="#555555" stroke-width="1.5" points="1362.18,-184.77 1364.92,-174.53 1356.39,-180.83 1362.18,-184.77"/>
<text text-anchor="middle" x="1294" y="-478.6" font-family="Sans-Serif" font-size="13.00" fill="#2d3436">metrics</text>
</g>
<!-- 8e176f02254b43ca8387f804ff6149e9 -->
<g id="node10" class="node">
<title>8e176f02254b43ca8387f804ff6149e9</title>
<polygon fill="lightgrey" stroke="transparent" points="907,-310.5 806,-310.5 806,-173.5 907,-173.5 907,-310.5"/>
<image xlink:href="/home/n3m/.local/lib/python3.10/site-packages/resources/gcp/network/router.png" width="101px" height="101px" preserveAspectRatio="xMinYMin meet" x="806" y="-292.5"/>
<text text-anchor="middle" x="856.5" y="-177.1" font-family="Segoe UI, Arial" font-size="13.00" fill="#2d3436">VPC Access</text>
</g>
<!-- 8e176f02254b43ca8387f804ff6149e9&#45;&gt;804d7c34749f44aca07ce05c47a78d98 -->
<g id="edge11" class="edge">
<title>8e176f02254b43ca8387f804ff6149e9&#45;&gt;804d7c34749f44aca07ce05c47a78d98</title>
<path fill="none" stroke="#7f7f7f" stroke-width="1.8" stroke-dasharray="5,2" d="M907.35,-255.8C1008.46,-284.24 1035.64,-302.45 1109,-406.06"/>
<polygon fill="#7f7f7f" stroke="#7f7f7f" stroke-width="1.8" points="1106.21,-408.18 1114.83,-414.34 1111.93,-404.15 1106.21,-408.18"/>
<text text-anchor="middle" x="1013.5" y="-306.6" font-family="Sans-Serif" font-size="13.00" fill="#2d3436">CDP :9223</text>
</g>
<!-- 8e176f02254b43ca8387f804ff6149e9&#45;&gt;2249cdb6e1334a5caba187afed99e77b -->
<g id="edge10" class="edge">
<title>8e176f02254b43ca8387f804ff6149e9&#45;&gt;2249cdb6e1334a5caba187afed99e77b</title>
<path fill="none" stroke="#7f7f7f" stroke-width="1.8" stroke-dasharray="5,2" d="M907.02,-298.14C1062.23,-472.56 1078.61,-521.75 1149.85,-944.65"/>
<polygon fill="#7f7f7f" stroke="#7f7f7f" stroke-width="1.8" points="1146.44,-945.43 1151.55,-954.71 1153.34,-944.26 1146.44,-945.43"/>
<text text-anchor="middle" x="1013.5" y="-950.6" font-family="Sans-Serif" font-size="13.00" fill="#2d3436">tunnel</text>
</g>
<!-- 71e97b4e4a9245fdba9ed4da934e800e -->
<g id="node11" class="node">
<title>71e97b4e4a9245fdba9ed4da934e800e</title>
<polygon fill="lightgrey" stroke="transparent" points="342,-174 241,-174 241,-8 342,-8 342,-174"/>
<image xlink:href="/home/n3m/.local/lib/python3.10/site-packages/resources/gcp/devtools/container-registry.png" width="101px" height="101px" preserveAspectRatio="xMinYMin meet" x="241" y="-141.5"/>
<text text-anchor="middle" x="291.5" y="-25.6" font-family="Segoe UI, Arial" font-size="13.00" fill="#2d3436">Container</text>
<text text-anchor="middle" x="291.5" y="-11.6" font-family="Segoe UI, Arial" font-size="13.00" fill="#2d3436">Registry</text>
</g>
<!-- 71e97b4e4a9245fdba9ed4da934e800e&#45;&gt;243bf2a32bf7401f9fa807f6d52ac043 -->
<g id="edge12" class="edge">
<title>71e97b4e4a9245fdba9ed4da934e800e&#45;&gt;243bf2a32bf7401f9fa807f6d52ac043</title>
<path fill="none" stroke="#bcbd22" stroke-width="1.5" stroke-dasharray="5,2" d="M321.87,-174.22C361.81,-281.29 389.55,-339.68 521.63,-605.69"/>
<polygon fill="#bcbd22" stroke="#bcbd22" stroke-width="1.5" points="518.59,-607.43 526.18,-614.83 524.86,-604.32 518.59,-607.43"/>
<text text-anchor="middle" x="423.5" y="-610.6" font-family="Sans-Serif" font-size="13.00" fill="#2d3436">pull images</text>
</g>
<!-- 71e97b4e4a9245fdba9ed4da934e800e&#45;&gt;d75f97e1abe043c9b164759c71842cb7 -->
<g id="edge13" class="edge">
<title>71e97b4e4a9245fdba9ed4da934e800e&#45;&gt;d75f97e1abe043c9b164759c71842cb7</title>
<path fill="none" stroke="#bcbd22" stroke-width="1.5" stroke-dasharray="5,2" d="M342.08,-142.83C489.5,-294.77 524.4,-344.07 800.41,-769.5"/>
<polygon fill="#bcbd22" stroke="#bcbd22" stroke-width="1.5" points="797.56,-771.54 805.94,-778.02 803.43,-767.73 797.56,-771.54"/>
<text text-anchor="middle" x="567.5" y="-532.6" font-family="Sans-Serif" font-size="13.00" fill="#2d3436">pull images</text>
</g>
<!-- 71e97b4e4a9245fdba9ed4da934e800e&#45;&gt;804d7c34749f44aca07ce05c47a78d98 -->
<g id="edge14" class="edge">
<title>71e97b4e4a9245fdba9ed4da934e800e&#45;&gt;804d7c34749f44aca07ce05c47a78d98</title>
<path fill="none" stroke="#bcbd22" stroke-width="1.5" stroke-dasharray="5,2" d="M342.03,-92.09C685,-99.9 718.07,-114.81 1107.16,-439.29"/>
<polygon fill="#bcbd22" stroke="#bcbd22" stroke-width="1.5" points="1105.03,-442.07 1114.96,-445.79 1109.52,-436.7 1105.03,-442.07"/>
<text text-anchor="middle" x="711.5" y="-387.6" font-family="Sans-Serif" font-size="13.00" fill="#2d3436">pull images</text>
</g>
<!-- edca0bbacb894ec59e413d76dabefa37 -->
<g id="node12" class="node">
<title>edca0bbacb894ec59e413d76dabefa37</title>
<polygon fill="lightgrey" stroke="transparent" points="342,-383.5 241,-383.5 241,-246.5 342,-246.5 342,-383.5"/>
<image xlink:href="/home/n3m/.local/lib/python3.10/site-packages/resources/gcp/security/iam.png" width="101px" height="101px" preserveAspectRatio="xMinYMin meet" x="241" y="-365.5"/>
<text text-anchor="middle" x="291.5" y="-250.1" font-family="Segoe UI, Arial" font-size="13.00" fill="#2d3436">IAM</text>
</g>
<!-- edca0bbacb894ec59e413d76dabefa37&#45;&gt;243bf2a32bf7401f9fa807f6d52ac043 -->
<g id="edge15" class="edge">
<title>edca0bbacb894ec59e413d76dabefa37&#45;&gt;243bf2a32bf7401f9fa807f6d52ac043</title>
<path fill="none" stroke="#17becf" stroke-width="1.5" stroke-dasharray="5,2" d="M340.75,-383.89C378.79,-437.01 410.31,-480.67 510.65,-619.41"/>
<polygon fill="#17becf" stroke="#17becf" stroke-width="1.5" points="508.04,-621.76 516.73,-627.81 513.71,-617.66 508.04,-621.76"/>
<text text-anchor="middle" x="423.5" y="-701.6" font-family="Sans-Serif" font-size="13.00" fill="#2d3436">identity</text>
</g>
<!-- edca0bbacb894ec59e413d76dabefa37&#45;&gt;d75f97e1abe043c9b164759c71842cb7 -->
<g id="edge16" class="edge">
<title>edca0bbacb894ec59e413d76dabefa37&#45;&gt;d75f97e1abe043c9b164759c71842cb7</title>
<path fill="none" stroke="#17becf" stroke-width="1.5" stroke-dasharray="5,2" d="M342.14,-347.82C491.31,-445.33 526.08,-480.4 799.09,-790.7"/>
<polygon fill="#17becf" stroke="#17becf" stroke-width="1.5" points="796.76,-793.36 805.99,-798.55 802.02,-788.73 796.76,-793.36"/>
<text text-anchor="middle" x="567.5" y="-928.6" font-family="Sans-Serif" font-size="13.00" fill="#2d3436">identity</text>
</g>
<!-- edca0bbacb894ec59e413d76dabefa37&#45;&gt;804d7c34749f44aca07ce05c47a78d98 -->
<g id="edge17" class="edge">
<title>edca0bbacb894ec59e413d76dabefa37&#45;&gt;804d7c34749f44aca07ce05c47a78d98</title>
<path fill="none" stroke="#17becf" stroke-width="1.5" stroke-dasharray="5,2" d="M342.03,-303.96C682.58,-229.98 716,-236.39 1105.75,-454.5"/>
<polygon fill="#17becf" stroke="#17becf" stroke-width="1.5" points="1104.29,-457.7 1114.73,-459.53 1107.71,-451.59 1104.29,-457.7"/>
<text text-anchor="middle" x="711.5" y="-1015.6" font-family="Sans-Serif" font-size="13.00" fill="#2d3436">identity</text>
</g>
<!-- 4164ddad2b2e4667b6574f3ddf1d206d -->
<g id="node16" class="node">
<title>4164ddad2b2e4667b6574f3ddf1d206d</title>
<polygon fill="lightgrey" stroke="transparent" points="1688,-174.5 1587,-174.5 1587,-37.5 1688,-37.5 1688,-174.5"/>
<image xlink:href="/home/n3m/.local/lib/python3.10/site-packages/resources/onprem/client/user.png" width="101px" height="101px" preserveAspectRatio="xMinYMin meet" x="1587" y="-156.5"/>
<text text-anchor="middle" x="1637.5" y="-41.1" font-family="Segoe UI, Arial" font-size="13.00" fill="#2d3436">👨‍💼 Platform Team</text>
</g>
<!-- 91ab04f823a146cb9ed4dddc07d93122&#45;&gt;4164ddad2b2e4667b6574f3ddf1d206d -->
<g id="edge24" class="edge">
<title>91ab04f823a146cb9ed4dddc07d93122&#45;&gt;4164ddad2b2e4667b6574f3ddf1d206d</title>
<path fill="none" stroke="#555555" stroke-width="1.5" stroke-dasharray="1,5" d="M1463.3,-92.66C1521.63,-77.81 1546.32,-74.55 1577.18,-82.9"/>
<polygon fill="#555555" stroke="#555555" stroke-width="1.5" points="1576.41,-86.32 1586.99,-85.86 1578.43,-79.62 1576.41,-86.32"/>
<text text-anchor="middle" x="1525" y="-109.6" font-family="Sans-Serif" font-size="13.00" fill="#2d3436">alerts</text>
</g>
<!-- e6c08cfa77694cc2bb933ba2aaf8c01a -->
<g id="node15" class="node">
<title>e6c08cfa77694cc2bb933ba2aaf8c01a</title>
<polygon fill="lightgrey" stroke="transparent" points="109,-264.5 8,-264.5 8,-127.5 109,-127.5 109,-264.5"/>
<image xlink:href="/home/n3m/.local/lib/python3.10/site-packages/resources/gcp/network/virtual-private-cloud.png" width="101px" height="101px" preserveAspectRatio="xMinYMin meet" x="8" y="-246.5"/>
<text text-anchor="middle" x="58.5" y="-131.1" font-family="Segoe UI, Arial" font-size="13.00" fill="#2d3436">Private VPC</text>
</g>
</g>
</svg>
