<?xml version="1.0" encoding="UTF-8" standalone="no"?>
<!DOCTYPE svg PUBLIC "-//W3C//DTD SVG 1.1//EN"
 "http://www.w3.org/Graphics/SVG/1.1/DTD/svg11.dtd">
<!-- Generated by graphviz version 2.43.0 (0)
 -->
<!-- Title: Memoo &#45; Google Cloud Architecture Pages: 1 -->
<svg width="1664pt" height="2023pt"
 viewBox="0.00 0.00 1664.30 2022.80" xmlns="http://www.w3.org/2000/svg" xmlns:xlink="http://www.w3.org/1999/xlink">
<g id="graph0" class="graph" transform="scale(1 1) rotate(0) translate(32.4 1990.4)">
<title>Memoo &#45; Google Cloud Architecture</title>
<polygon fill="white" stroke="transparent" points="-32.4,32.4 -32.4,-1990.4 1631.9,-1990.4 1631.9,32.4 -32.4,32.4"/>
<text text-anchor="middle" x="799.75" y="-1936.4" font-family="Helvetica,sans-Serif" font-size="22.00" fill="#2d3436">Memoo &#45; Google Cloud Architecture</text>
<g id="clust1" class="cluster">
<title>cluster_Google Cloud Project</title>
<path fill="#e5f5fd" stroke="#aeb6be" d="M172.5,-201C172.5,-201 1579.5,-201 1579.5,-201 1585.5,-201 1591.5,-207 1591.5,-213 1591.5,-213 1591.5,-1722 1591.5,-1722 1591.5,-1728 1585.5,-1734 1579.5,-1734 1579.5,-1734 172.5,-1734 172.5,-1734 166.5,-1734 160.5,-1728 160.5,-1722 160.5,-1722 160.5,-213 160.5,-213 160.5,-207 166.5,-201 172.5,-201"/>
<text text-anchor="middle" x="229" y="-1720.4" font-family="Sans-Serif" font-size="12.00" fill="#2d3436">Google Cloud Project</text>
</g>
<g id="clust2" class="cluster">
<title>cluster_Product Surface</title>
<path fill="#ebf3e7" stroke="#aeb6be" d="M656.5,-426C656.5,-426 794.5,-426 794.5,-426 800.5,-426 806.5,-432 806.5,-438 806.5,-438 806.5,-1443 806.5,-1443 806.5,-1449 800.5,-1455 794.5,-1455 794.5,-1455 656.5,-1455 656.5,-1455 650.5,-1455 644.5,-1449 644.5,-1443 644.5,-1443 644.5,-438 644.5,-438 644.5,-432 650.5,-426 656.5,-426"/>
<text text-anchor="middle" x="698.5" y="-1441.4" font-family="Sans-Serif" font-size="12.00" fill="#2d3436">Product Surface</text>
</g>
<g id="clust3" class="cluster">
<title>cluster_Private Connectivity</title>
<path fill="#ebf3e7" stroke="#aeb6be" d="M1181.5,-700C1181.5,-700 1286.5,-700 1286.5,-700 1292.5,-700 1298.5,-706 1298.5,-712 1298.5,-712 1298.5,-1155 1298.5,-1155 1298.5,-1161 1292.5,-1167 1286.5,-1167 1286.5,-1167 1181.5,-1167 1181.5,-1167 1175.5,-1167 1169.5,-1161 1169.5,-1155 1169.5,-1155 1169.5,-712 1169.5,-712 1169.5,-706 1175.5,-700 1181.5,-700"/>
<text text-anchor="middle" x="1234" y="-1153.4" font-family="Sans-Serif" font-size="12.00" fill="#2d3436">Private Connectivity</text>
</g>
<g id="clust4" class="cluster">
<title>cluster_Data Plane</title>
<path fill="#ebf3e7" stroke="#aeb6be" d="M826.5,-426C826.5,-426 1071.5,-426 1071.5,-426 1077.5,-426 1083.5,-432 1083.5,-438 1083.5,-438 1083.5,-891 1083.5,-891 1083.5,-897 1077.5,-903 1071.5,-903 1071.5,-903 826.5,-903 826.5,-903 820.5,-903 814.5,-897 814.5,-891 814.5,-891 814.5,-438 814.5,-438 814.5,-432 820.5,-426 826.5,-426"/>
<text text-anchor="middle" x="853.5" y="-889.4" font-family="Sans-Serif" font-size="12.00" fill="#2d3436">Data Plane</text>
</g>
<g id="clust5" class="cluster">
<title>cluster_Platform Operations</title>
<path fill="#ebf3e7" stroke="#aeb6be" d="M180.5,-209C180.5,-209 425.5,-209 425.5,-209 431.5,-209 437.5,-215 437.5,-221 437.5,-221 437.5,-1693 437.5,-1693 437.5,-1699 431.5,-1705 425.5,-1705 425.5,-1705 180.5,-1705 180.5,-1705 174.5,-1705 168.5,-1699 168.5,-1693 168.5,-1693 168.5,-221 168.5,-221 168.5,-215 174.5,-209 180.5,-209"/>
<text text-anchor="middle" x="235" y="-1691.4" font-family="Sans-Serif" font-size="12.00" fill="#2d3436">Platform Operations</text>
</g>
<!-- 4d373fa02f5f40d0944f51e22357482f -->
<g id="node1" class="node">
<title>4d373fa02f5f40d0944f51e22357482f</title>
<image xlink:href="/home/dark/.local/lib/python3.13/site-packages/resources/onprem/client/user.png" width="101px" height="101px" preserveAspectRatio="xMinYMin meet" x="0" y="-1908"/>
<text text-anchor="middle" x="50.5" y="-1792.4" font-family="Helvetica,sans-Serif" font-size="12.00" fill="#2d3436">Workspace users</text>
</g>
<!-- b35a73f7d5d54c2788c4b0a46f3276d5 -->
<g id="node3" class="node">
<title>b35a73f7d5d54c2788c4b0a46f3276d5</title>
<image xlink:href="/home/dark/.local/lib/python3.13/site-packages/resources/gcp/network/cdn.png" width="101px" height="101px" preserveAspectRatio="xMinYMin meet" x="0" y="-1643.5"/>
<text text-anchor="middle" x="50.5" y="-1527.9" font-family="Helvetica,sans-Serif" font-size="12.00" fill="#2d3436">Public HTTPS access</text>
</g>
<!-- 4d373fa02f5f40d0944f51e22357482f&#45;&gt;b35a73f7d5d54c2788c4b0a46f3276d5 -->
<g id="edge1" class="edge">
<title>4d373fa02f5f40d0944f51e22357482f&#45;&gt;b35a73f7d5d54c2788c4b0a46f3276d5</title>
<path fill="none" stroke="#3768d9" stroke-width="1.8" d="M50.5,-1788.7C50.5,-1788.7 50.5,-1671.92 50.5,-1671.92"/>
<polygon fill="#3768d9" stroke="#3768d9" stroke-width="1.8" points="54,-1671.92 50.5,-1661.92 47,-1671.92 54,-1671.92"/>
<text text-anchor="middle" x="107.5" y="-1745.6" font-family="Sans-Serif" font-size="13.00" fill="#2d3436">app + live browser</text>
</g>
<!-- 15a8223e33dd48b599573cdda07d57ce -->
<g id="node2" class="node">
<title>15a8223e33dd48b599573cdda07d57ce</title>
<image xlink:href="/home/dark/.local/lib/python3.13/site-packages/resources/onprem/client/user.png" width="101px" height="101px" preserveAspectRatio="xMinYMin meet" x="328" y="-119"/>
<text text-anchor="middle" x="378.5" y="-3.4" font-family="Helvetica,sans-Serif" font-size="12.00" fill="#2d3436">Platform team</text>
</g>
<!-- e2b4e8df84cf4a0d93dcefabd9801803 -->
<g id="node4" class="node">
<title>e2b4e8df84cf4a0d93dcefabd9801803</title>
<image xlink:href="/home/dark/.local/lib/python3.13/site-packages/resources/gcp/compute/run.png" width="101px" height="101px" preserveAspectRatio="xMinYMin meet" x="697" y="-1379.5"/>
<text text-anchor="middle" x="747.5" y="-1261.4" font-family="Helvetica,sans-Serif" font-size="12.00" fill="#2d3436">Cloud Run</text>
<text text-anchor="middle" x="747.5" y="-1248.4" font-family="Helvetica,sans-Serif" font-size="12.00" fill="#2d3436">memoo&#45;web</text>
<text text-anchor="middle" x="747.5" y="-1235.4" font-family="Helvetica,sans-Serif" font-size="12.00" fill="#2d3436">Next.js frontend</text>
</g>
<!-- b35a73f7d5d54c2788c4b0a46f3276d5&#45;&gt;e2b4e8df84cf4a0d93dcefabd9801803 -->
<g id="edge21" class="edge">
<title>b35a73f7d5d54c2788c4b0a46f3276d5&#45;&gt;e2b4e8df84cf4a0d93dcefabd9801803</title>
<path fill="none" stroke="#3768d9" stroke-width="1.8" d="M67.33,-1524.43C67.33,-1451.95 67.33,-1348 67.33,-1348 67.33,-1348 686.93,-1348 686.93,-1348"/>
<polygon fill="#3768d9" stroke="#3768d9" stroke-width="1.8" points="686.93,-1351.5 696.93,-1348 686.93,-1344.5 686.93,-1351.5"/>
<text text-anchor="middle" x="133" y="-1466.6" font-family="Sans-Serif" font-size="13.00" fill="#2d3436">frontend</text>
</g>
<!-- 5ad3a44144474356b4194ad89f5537dc -->
<g id="node9" class="node">
<title>5ad3a44144474356b4194ad89f5537dc</title>
<image xlink:href="/home/dark/.local/lib/python3.13/site-packages/resources/gcp/compute/compute-engine.png" width="101px" height="101px" preserveAspectRatio="xMinYMin meet" x="653" y="-581.5"/>
<text text-anchor="middle" x="703.5" y="-463.4" font-family="Helvetica,sans-Serif" font-size="12.00" fill="#2d3436">Compute Engine VM</text>
<text text-anchor="middle" x="703.5" y="-450.4" font-family="Helvetica,sans-Serif" font-size="12.00" fill="#2d3436">memoo&#45;sandbox</text>
<text text-anchor="middle" x="703.5" y="-437.4" font-family="Helvetica,sans-Serif" font-size="12.00" fill="#2d3436">Visible browser + noVNC</text>
</g>
<!-- b35a73f7d5d54c2788c4b0a46f3276d5&#45;&gt;5ad3a44144474356b4194ad89f5537dc -->
<g id="edge22" class="edge">
<title>b35a73f7d5d54c2788c4b0a46f3276d5&#45;&gt;5ad3a44144474356b4194ad89f5537dc</title>
<path fill="none" stroke="#3768d9" stroke-width="1.8" d="M33.67,-1524.14C33.67,-1288.8 33.67,-531 33.67,-531 33.67,-531 642.88,-531 642.88,-531"/>
<polygon fill="#3768d9" stroke="#3768d9" stroke-width="1.8" points="642.88,-534.5 652.88,-531 642.88,-527.5 642.88,-534.5"/>
<text text-anchor="middle" x="59" y="-1051.6" font-family="Sans-Serif" font-size="13.00" fill="#2d3436">live session</text>
</g>
<!-- 41810f26dea449f5858f4475045de2e3 -->
<g id="node5" class="node">
<title>41810f26dea449f5858f4475045de2e3</title>
<image xlink:href="/home/dark/.local/lib/python3.13/site-packages/resources/gcp/compute/run.png" width="101px" height="101px" preserveAspectRatio="xMinYMin meet" x="697" y="-1105.5"/>
<text text-anchor="middle" x="747.5" y="-987.4" font-family="Helvetica,sans-Serif" font-size="12.00" fill="#2d3436">Cloud Run</text>
<text text-anchor="middle" x="747.5" y="-974.4" font-family="Helvetica,sans-Serif" font-size="12.00" fill="#2d3436">memoo&#45;api</text>
<text text-anchor="middle" x="747.5" y="-961.4" font-family="Helvetica,sans-Serif" font-size="12.00" fill="#2d3436">FastAPI backend</text>
</g>
<!-- e2b4e8df84cf4a0d93dcefabd9801803&#45;&gt;41810f26dea449f5858f4475045de2e3 -->
<g id="edge2" class="edge">
<title>e2b4e8df84cf4a0d93dcefabd9801803&#45;&gt;41810f26dea449f5858f4475045de2e3</title>
<path fill="none" stroke="#3768d9" stroke-width="1.8" d="M747.5,-1231.63C747.5,-1231.63 747.5,-1162.06 747.5,-1162.06"/>
<polygon fill="#3768d9" stroke="#3768d9" stroke-width="1.8" points="751,-1162.06 747.5,-1152.06 744,-1162.06 751,-1162.06"/>
<text text-anchor="middle" x="767" y="-1188.6" font-family="Sans-Serif" font-size="13.00" fill="#2d3436">/api/proxy</text>
</g>
<!-- 5596875d6bb446cb81deeb071543eddf -->
<g id="node14" class="node">
<title>5596875d6bb446cb81deeb071543eddf</title>
<image xlink:href="/home/dark/.local/lib/python3.13/site-packages/resources/gcp/operations/logging.png" width="101px" height="101px" preserveAspectRatio="xMinYMin meet" x="177" y="-336"/>
<text text-anchor="middle" x="227.5" y="-220.4" font-family="Helvetica,sans-Serif" font-size="12.00" fill="#2d3436">Cloud Logging</text>
</g>
<!-- e2b4e8df84cf4a0d93dcefabd9801803&#45;&gt;5596875d6bb446cb81deeb071543eddf -->
<g id="edge15" class="edge">
<title>e2b4e8df84cf4a0d93dcefabd9801803&#45;&gt;5596875d6bb446cb81deeb071543eddf</title>
<path fill="none" stroke="#2f7d57" stroke-width="1.3" d="M696.68,-1309C559.41,-1309 191.43,-1309 191.43,-1309 191.43,-1309 191.43,-364.24 191.43,-364.24"/>
<polygon fill="#2f7d57" stroke="#2f7d57" stroke-width="1.3" points="194.93,-364.24 191.43,-354.24 187.93,-364.24 194.93,-364.24"/>
<text text-anchor="middle" x="1409" y="-787.6" font-family="Sans-Serif" font-size="13.00" fill="#2d3436">telemetry</text>
</g>
<!-- 3997fed6430c49119b4fa3ca5f6f0191 -->
<g id="node15" class="node">
<title>3997fed6430c49119b4fa3ca5f6f0191</title>
<image xlink:href="/home/dark/.local/lib/python3.13/site-packages/resources/gcp/operations/monitoring.png" width="101px" height="101px" preserveAspectRatio="xMinYMin meet" x="328" y="-336"/>
<text text-anchor="middle" x="378.5" y="-220.4" font-family="Helvetica,sans-Serif" font-size="12.00" fill="#2d3436">Monitoring + cost alerts</text>
</g>
<!-- e2b4e8df84cf4a0d93dcefabd9801803&#45;&gt;3997fed6430c49119b4fa3ca5f6f0191 -->
<g id="edge18" class="edge">
<title>e2b4e8df84cf4a0d93dcefabd9801803&#45;&gt;3997fed6430c49119b4fa3ca5f6f0191</title>
<path fill="none" stroke="#2f7d57" stroke-width="1.3" d="M696.66,-1270C591.89,-1270 361.67,-1270 361.67,-1270 361.67,-1270 361.67,-364.34 361.67,-364.34"/>
<polygon fill="#2f7d57" stroke="#2f7d57" stroke-width="1.3" points="365.17,-364.34 361.67,-354.34 358.17,-364.34 365.17,-364.34"/>
<text text-anchor="middle" x="1561" y="-787.6" font-family="Sans-Serif" font-size="13.00" fill="#2d3436">metrics</text>
</g>
<!-- 674d9451164949139892546b9ba29901 -->
<g id="node6" class="node">
<title>674d9451164949139892546b9ba29901</title>
<image xlink:href="/home/dark/.local/lib/python3.13/site-packages/resources/gcp/network/router.png" width="101px" height="101px" preserveAspectRatio="xMinYMin meet" x="1178" y="-841.5"/>
<text text-anchor="middle" x="1228.5" y="-724.4" font-family="Helvetica,sans-Serif" font-size="12.00" fill="#2d3436">Serverless VPC Access</text>
<text text-anchor="middle" x="1228.5" y="-711.4" font-family="Helvetica,sans-Serif" font-size="12.00" fill="#2d3436">10.10.1.0/28</text>
</g>
<!-- 41810f26dea449f5858f4475045de2e3&#45;&gt;674d9451164949139892546b9ba29901 -->
<g id="edge3" class="edge">
<title>41810f26dea449f5858f4475045de2e3&#45;&gt;674d9451164949139892546b9ba29901</title>
<path fill="none" stroke="#4d5b75" stroke-width="1.5" d="M798.37,-968C913.38,-968 1183.5,-968 1183.5,-968 1183.5,-968 1183.5,-884.06 1183.5,-884.06"/>
<polygon fill="#4d5b75" stroke="#4d5b75" stroke-width="1.5" points="1187,-884.06 1183.5,-874.06 1180,-884.06 1187,-884.06"/>
<text text-anchor="middle" x="1226.5" y="-914.6" font-family="Sans-Serif" font-size="13.00" fill="#2d3436">private egress</text>
</g>
<!-- 9de1eb5ae7c341cc85c09822b64ff339 -->
<g id="node10" class="node">
<title>9de1eb5ae7c341cc85c09822b64ff339</title>
<image xlink:href="/home/dark/.local/lib/python3.13/site-packages/resources/gcp/storage/storage.png" width="101px" height="101px" preserveAspectRatio="xMinYMin meet" x="823" y="-841.5"/>
<text text-anchor="middle" x="873.5" y="-724.4" font-family="Helvetica,sans-Serif" font-size="12.00" fill="#2d3436">Cloud Storage</text>
<text text-anchor="middle" x="873.5" y="-711.4" font-family="Helvetica,sans-Serif" font-size="12.00" fill="#2d3436">Evidence bucket</text>
</g>
<!-- 41810f26dea449f5858f4475045de2e3&#45;&gt;9de1eb5ae7c341cc85c09822b64ff339 -->
<g id="edge7" class="edge">
<title>41810f26dea449f5858f4475045de2e3&#45;&gt;9de1eb5ae7c341cc85c09822b64ff339</title>
<path fill="none" stroke="#2f7d57" stroke-width="1.3" d="M798.02,-961C833.08,-961 873.5,-961 873.5,-961 873.5,-961 873.5,-884.01 873.5,-884.01"/>
<polygon fill="#2f7d57" stroke="#2f7d57" stroke-width="1.3" points="877,-884.01 873.5,-874.01 870,-884.01 877,-884.01"/>
<text text-anchor="middle" x="886.5" y="-914.6" font-family="Sans-Serif" font-size="13.00" fill="#2d3436">evidence read/write</text>
</g>
<!-- c37e8f9bb5dc442299a12ec96fd14faf -->
<g id="node11" class="node">
<title>c37e8f9bb5dc442299a12ec96fd14faf</title>
<image xlink:href="/home/dark/.local/lib/python3.13/site-packages/resources/gcp/security/secret-manager.png" width="101px" height="101px" preserveAspectRatio="xMinYMin meet" x="974" y="-841.5"/>
<text text-anchor="middle" x="1024.5" y="-724.4" font-family="Helvetica,sans-Serif" font-size="12.00" fill="#2d3436">Secret Manager</text>
<text text-anchor="middle" x="1024.5" y="-711.4" font-family="Helvetica,sans-Serif" font-size="12.00" fill="#2d3436">DB password + Gemini key</text>
</g>
<!-- 41810f26dea449f5858f4475045de2e3&#45;&gt;c37e8f9bb5dc442299a12ec96fd14faf -->
<g id="edge8" class="edge">
<title>41810f26dea449f5858f4475045de2e3&#45;&gt;c37e8f9bb5dc442299a12ec96fd14faf</title>
<path fill="none" stroke="#4d5b75" stroke-width="1.5" d="M798.31,-965C878.27,-965 1024.5,-965 1024.5,-965 1024.5,-965 1024.5,-884.18 1024.5,-884.18"/>
<polygon fill="#4d5b75" stroke="#4d5b75" stroke-width="1.5" points="1028,-884.18 1024.5,-874.18 1021,-884.18 1028,-884.18"/>
<text text-anchor="middle" x="1053.5" y="-914.6" font-family="Sans-Serif" font-size="13.00" fill="#2d3436">secret access</text>
</g>
<!-- 41810f26dea449f5858f4475045de2e3&#45;&gt;5596875d6bb446cb81deeb071543eddf -->
<g id="edge16" class="edge">
<title>41810f26dea449f5858f4475045de2e3&#45;&gt;5596875d6bb446cb81deeb071543eddf</title>
<path fill="none" stroke="#2f7d57" stroke-width="1.3" d="M696.95,-1006C564.99,-1006 220.29,-1006 220.29,-1006 220.29,-1006 220.29,-364.26 220.29,-364.26"/>
<polygon fill="#2f7d57" stroke="#2f7d57" stroke-width="1.3" points="223.79,-364.26 220.29,-354.26 216.79,-364.26 223.79,-364.26"/>
<text text-anchor="middle" x="777" y="-664.6" font-family="Sans-Serif" font-size="13.00" fill="#2d3436">telemetry</text>
</g>
<!-- 41810f26dea449f5858f4475045de2e3&#45;&gt;3997fed6430c49119b4fa3ca5f6f0191 -->
<g id="edge19" class="edge">
<title>41810f26dea449f5858f4475045de2e3&#45;&gt;3997fed6430c49119b4fa3ca5f6f0191</title>
<path fill="none" stroke="#2f7d57" stroke-width="1.3" d="M776,-957.76C776,-746.01 776,-262 776,-262 776,-262 439.25,-262 439.25,-262"/>
<polygon fill="#2f7d57" stroke="#2f7d57" stroke-width="1.3" points="439.25,-258.5 429.25,-262 439.25,-265.5 439.25,-258.5"/>
<text text-anchor="middle" x="1444" y="-664.6" font-family="Sans-Serif" font-size="13.00" fill="#2d3436">metrics</text>
</g>
<!-- 0eeeaf48f1824ff8bf5dd437b99dce71 -->
<g id="node8" class="node">
<title>0eeeaf48f1824ff8bf5dd437b99dce71</title>
<image xlink:href="/home/dark/.local/lib/python3.13/site-packages/resources/gcp/database/sql.png" width="101px" height="101px" preserveAspectRatio="xMinYMin meet" x="974" y="-581.5"/>
<text text-anchor="middle" x="1024.5" y="-463.4" font-family="Helvetica,sans-Serif" font-size="12.00" fill="#2d3436">Cloud SQL</text>
<text text-anchor="middle" x="1024.5" y="-450.4" font-family="Helvetica,sans-Serif" font-size="12.00" fill="#2d3436">PostgreSQL 16</text>
<text text-anchor="middle" x="1024.5" y="-437.4" font-family="Helvetica,sans-Serif" font-size="12.00" fill="#2d3436">db&#45;g1&#45;small</text>
</g>
<!-- 674d9451164949139892546b9ba29901&#45;&gt;0eeeaf48f1824ff8bf5dd437b99dce71 -->
<g id="edge5" class="edge">
<title>674d9451164949139892546b9ba29901&#45;&gt;0eeeaf48f1824ff8bf5dd437b99dce71</title>
<path fill="none" stroke="#4d5b75" stroke-width="1.5" d="M1245.33,-707.66C1245.33,-631.61 1245.33,-531 1245.33,-531 1245.33,-531 1085.16,-531 1085.16,-531"/>
<polygon fill="#4d5b75" stroke="#4d5b75" stroke-width="1.5" points="1085.16,-527.5 1075.16,-531 1085.16,-534.5 1085.16,-527.5"/>
<text text-anchor="middle" x="1313.5" y="-664.6" font-family="Sans-Serif" font-size="13.00" fill="#2d3436">Cloud SQL socket</text>
</g>
<!-- 674d9451164949139892546b9ba29901&#45;&gt;5ad3a44144474356b4194ad89f5537dc -->
<g id="edge6" class="edge">
<title>674d9451164949139892546b9ba29901&#45;&gt;5ad3a44144474356b4194ad89f5537dc</title>
<path fill="none" stroke="#4d5b75" stroke-width="1.5" d="M1211.67,-707.93C1211.67,-685.84 1211.67,-668 1211.67,-668 1211.67,-668 725.5,-668 725.5,-668 725.5,-668 725.5,-638.01 725.5,-638.01"/>
<polygon fill="#4d5b75" stroke="#4d5b75" stroke-width="1.5" points="729,-638.01 725.5,-628.01 722,-638.01 729,-638.01"/>
<text text-anchor="middle" x="1173.5" y="-664.6" font-family="Sans-Serif" font-size="13.00" fill="#2d3436">CDP :9223</text>
</g>
<!-- 4c332acd0fee43f7bbcdd0adc9e3bd4f -->
<g id="node7" class="node">
<title>4c332acd0fee43f7bbcdd0adc9e3bd4f</title>
<image xlink:href="/home/dark/.local/lib/python3.13/site-packages/resources/gcp/network/virtual-private-cloud.png" width="101px" height="101px" preserveAspectRatio="xMinYMin meet" x="1189" y="-1105.5"/>
<text text-anchor="middle" x="1239.5" y="-988.4" font-family="Helvetica,sans-Serif" font-size="12.00" fill="#2d3436">VPC</text>
<text text-anchor="middle" x="1239.5" y="-975.4" font-family="Helvetica,sans-Serif" font-size="12.00" fill="#2d3436">memoo&#45;vpc</text>
</g>
<!-- 4c332acd0fee43f7bbcdd0adc9e3bd4f&#45;&gt;674d9451164949139892546b9ba29901 -->
<!-- 5ad3a44144474356b4194ad89f5537dc&#45;&gt;5596875d6bb446cb81deeb071543eddf -->
<g id="edge17" class="edge">
<title>5ad3a44144474356b4194ad89f5537dc&#45;&gt;5596875d6bb446cb81deeb071543eddf</title>
<path fill="none" stroke="#2f7d57" stroke-width="1.3" d="M652.6,-482C536.8,-482 263.57,-482 263.57,-482 263.57,-482 263.57,-364.23 263.57,-364.23"/>
<polygon fill="#2f7d57" stroke="#2f7d57" stroke-width="1.3" points="267.07,-364.23 263.57,-354.23 260.07,-364.23 267.07,-364.23"/>
<text text-anchor="middle" x="624" y="-390.6" font-family="Sans-Serif" font-size="13.00" fill="#2d3436">telemetry</text>
</g>
<!-- 5ad3a44144474356b4194ad89f5537dc&#45;&gt;3997fed6430c49119b4fa3ca5f6f0191 -->
<g id="edge20" class="edge">
<title>5ad3a44144474356b4194ad89f5537dc&#45;&gt;3997fed6430c49119b4fa3ca5f6f0191</title>
<path fill="none" stroke="#2f7d57" stroke-width="1.3" d="M703.5,-433.84C703.5,-373.74 703.5,-308 703.5,-308 703.5,-308 439.28,-308 439.28,-308"/>
<polygon fill="#2f7d57" stroke="#2f7d57" stroke-width="1.3" points="439.28,-304.5 429.28,-308 439.28,-311.5 439.28,-304.5"/>
<text text-anchor="middle" x="884" y="-390.6" font-family="Sans-Serif" font-size="13.00" fill="#2d3436">metrics</text>
</g>
<!-- a3edaca9fabe45f39e4e24ff944aa6fd -->
<g id="node12" class="node">
<title>a3edaca9fabe45f39e4e24ff944aa6fd</title>
<image xlink:href="/home/dark/.local/lib/python3.13/site-packages/resources/gcp/devtools/container-registry.png" width="101px" height="101px" preserveAspectRatio="xMinYMin meet" x="177" y="-1643.5"/>
<text text-anchor="middle" x="227.5" y="-1526.4" font-family="Helvetica,sans-Serif" font-size="12.00" fill="#2d3436">Artifact Registry</text>
<text text-anchor="middle" x="227.5" y="-1513.4" font-family="Helvetica,sans-Serif" font-size="12.00" fill="#2d3436">memoo&#45;containers</text>
</g>
<!-- a3edaca9fabe45f39e4e24ff944aa6fd&#45;&gt;e2b4e8df84cf4a0d93dcefabd9801803 -->
<g id="edge9" class="edge">
<title>a3edaca9fabe45f39e4e24ff944aa6fd&#45;&gt;e2b4e8df84cf4a0d93dcefabd9801803</title>
<path fill="none" stroke="#a66b00" stroke-width="1.3" stroke-dasharray="5,2" d="M249.14,-1509.81C249.14,-1452.63 249.14,-1387 249.14,-1387 249.14,-1387 686.97,-1387 686.97,-1387"/>
<polygon fill="#a66b00" stroke="#a66b00" stroke-width="1.3" points="686.97,-1390.5 696.97,-1387 686.97,-1383.5 686.97,-1390.5"/>
<text text-anchor="middle" x="648" y="-1466.6" font-family="Sans-Serif" font-size="13.00" fill="#2d3436">image pull</text>
</g>
<!-- a3edaca9fabe45f39e4e24ff944aa6fd&#45;&gt;41810f26dea449f5858f4475045de2e3 -->
<g id="edge10" class="edge">
<title>a3edaca9fabe45f39e4e24ff944aa6fd&#45;&gt;41810f26dea449f5858f4475045de2e3</title>
<path fill="none" stroke="#a66b00" stroke-width="1.3" stroke-dasharray="5,2" d="M234.71,-1509.82C234.71,-1358.81 234.71,-1055 234.71,-1055 234.71,-1055 686.93,-1055 686.93,-1055"/>
<polygon fill="#a66b00" stroke="#a66b00" stroke-width="1.3" points="686.93,-1058.5 696.93,-1055 686.93,-1051.5 686.93,-1058.5"/>
<text text-anchor="middle" x="363" y="-1325.6" font-family="Sans-Serif" font-size="13.00" fill="#2d3436">image pull</text>
</g>
<!-- a3edaca9fabe45f39e4e24ff944aa6fd&#45;&gt;5ad3a44144474356b4194ad89f5537dc -->
<g id="edge11" class="edge">
<title>a3edaca9fabe45f39e4e24ff944aa6fd&#45;&gt;5ad3a44144474356b4194ad89f5537dc</title>
<path fill="none" stroke="#a66b00" stroke-width="1.3" stroke-dasharray="5,2" d="M205.86,-1509.59C205.86,-1267.03 205.86,-579 205.86,-579 205.86,-579 642.58,-579 642.58,-579"/>
<polygon fill="#a66b00" stroke="#a66b00" stroke-width="1.3" points="642.58,-582.5 652.58,-579 642.58,-575.5 642.58,-582.5"/>
<text text-anchor="middle" x="311" y="-1051.6" font-family="Sans-Serif" font-size="13.00" fill="#2d3436">image pull</text>
</g>
<!-- ebe1cd17f5174c8c92ffb2c00d11629f -->
<g id="node13" class="node">
<title>ebe1cd17f5174c8c92ffb2c00d11629f</title>
<image xlink:href="/home/dark/.local/lib/python3.13/site-packages/resources/gcp/security/iam.png" width="101px" height="101px" preserveAspectRatio="xMinYMin meet" x="328" y="-1643.5"/>
<text text-anchor="middle" x="378.5" y="-1526.4" font-family="Helvetica,sans-Serif" font-size="12.00" fill="#2d3436">Service identities</text>
<text text-anchor="middle" x="378.5" y="-1513.4" font-family="Helvetica,sans-Serif" font-size="12.00" fill="#2d3436">web / api / sandbox</text>
</g>
<!-- ebe1cd17f5174c8c92ffb2c00d11629f&#45;&gt;e2b4e8df84cf4a0d93dcefabd9801803 -->
<g id="edge12" class="edge">
<title>ebe1cd17f5174c8c92ffb2c00d11629f&#45;&gt;e2b4e8df84cf4a0d93dcefabd9801803</title>
<path fill="none" stroke="#a66b00" stroke-width="1.3" stroke-dasharray="5,2" d="M429.03,-1620C530.09,-1620 747.5,-1620 747.5,-1620 747.5,-1620 747.5,-1436.3 747.5,-1436.3"/>
<polygon fill="#a66b00" stroke="#a66b00" stroke-width="1.3" points="751,-1436.3 747.5,-1426.3 744,-1436.3 751,-1436.3"/>
<text text-anchor="middle" x="791" y="-1466.6" font-family="Sans-Serif" font-size="13.00" fill="#2d3436">runtime identity</text>
</g>
<!-- ebe1cd17f5174c8c92ffb2c00d11629f&#45;&gt;41810f26dea449f5858f4475045de2e3 -->
<g id="edge13" class="edge">
<title>ebe1cd17f5174c8c92ffb2c00d11629f&#45;&gt;41810f26dea449f5858f4475045de2e3</title>
<path fill="none" stroke="#a66b00" stroke-width="1.3" stroke-dasharray="5,2" d="M395.33,-1509.88C395.33,-1370.08 395.33,-1103 395.33,-1103 395.33,-1103 686.67,-1103 686.67,-1103"/>
<polygon fill="#a66b00" stroke="#a66b00" stroke-width="1.3" points="686.67,-1106.5 696.67,-1103 686.67,-1099.5 686.67,-1106.5"/>
<text text-anchor="middle" x="597" y="-1325.6" font-family="Sans-Serif" font-size="13.00" fill="#2d3436">runtime identity</text>
</g>
<!-- ebe1cd17f5174c8c92ffb2c00d11629f&#45;&gt;5ad3a44144474356b4194ad89f5537dc -->
<g id="edge14" class="edge">
<title>ebe1cd17f5174c8c92ffb2c00d11629f&#45;&gt;5ad3a44144474356b4194ad89f5537dc</title>
<path fill="none" stroke="#a66b00" stroke-width="1.3" stroke-dasharray="5,2" d="M429.13,-1565C513.82,-1565 675,-1565 675,-1565 675,-1565 675,-638.28 675,-638.28"/>
<polygon fill="#a66b00" stroke="#a66b00" stroke-width="1.3" points="678.5,-638.28 675,-628.28 671.5,-638.28 678.5,-638.28"/>
<text text-anchor="middle" x="496" y="-1051.6" font-family="Sans-Serif" font-size="13.00" fill="#2d3436">runtime identity</text>
</g>
<!-- 3997fed6430c49119b4fa3ca5f6f0191&#45;&gt;15a8223e33dd48b599573cdda07d57ce -->
<g id="edge23" class="edge">
<title>3997fed6430c49119b4fa3ca5f6f0191&#45;&gt;15a8223e33dd48b599573cdda07d57ce</title>
<path fill="none" stroke="#2f7d57" stroke-width="1.3" d="M378.5,-216.84C378.5,-216.84 378.5,-147.09 378.5,-147.09"/>
<polygon fill="#2f7d57" stroke="#2f7d57" stroke-width="1.3" points="382,-147.09 378.5,-137.09 375,-147.09 382,-147.09"/>
<text text-anchor="middle" x="395.5" y="-173.6" font-family="Sans-Serif" font-size="13.00" fill="#2d3436">alerts</text>
</g>
</g>
</svg>
