<?xml version="1.0" encoding="UTF-8" standalone="no"?>
<!DOCTYPE svg PUBLIC "-//W3C//DTD SVG 1.1//EN"
 "http://www.w3.org/Graphics/SVG/1.1/DTD/svg11.dtd">
<!-- Generated by graphviz version 2.43.0 (0)
 -->
<!-- Title: Memoo &#45; Google Cloud Architecture Pages: 1 -->
<svg width="1909pt" height="1480pt"
 viewBox="0.00 0.00 1909.00 1480.00" xmlns="http://www.w3.org/2000/svg" xmlns:xlink="http://www.w3.org/1999/xlink">
<g id="graph0" class="graph" transform="scale(1 1) rotate(0) translate(72 1408)">
<title>Memoo &#45; Google Cloud Architecture</title>
<polygon fill="#fcfcfd" stroke="transparent" points="-72,72 -72,-1408 1837,-1408 1837,72 -72,72"/>
<text text-anchor="middle" x="184" y="-1316" font-family="Helvetica,sans-Serif" font-size="20.00" fill="#2d3436">Memoo &#45; Google Cloud Architecture</text>
<g id="clust1" class="cluster">
<title>cluster_Public entry</title>
<path fill="#eef6ff" stroke="#bfd8f4" d="M235,-8C235,-8 520,-8 520,-8 526,-8 532,-14 532,-20 532,-20 532,-200 532,-200 532,-206 526,-212 520,-212 520,-212 235,-212 235,-212 229,-212 223,-206 223,-200 223,-200 223,-20 223,-20 223,-14 229,-8 235,-8"/>
<text text-anchor="middle" x="270.5" y="-197.6" font-family="Helvetica,sans-Serif" font-size="13.00" fill="#2d3436">Public entry</text>
</g>
<g id="clust2" class="cluster">
<title>cluster_Google Cloud project</title>
<path fill="#f7f8fa" stroke="#d9dee7" d="M677,-104C677,-104 1748,-104 1748,-104 1754,-104 1760,-110 1760,-116 1760,-116 1760,-1286 1760,-1286 1760,-1292 1754,-1298 1748,-1298 1748,-1298 677,-1298 677,-1298 671,-1298 665,-1292 665,-1286 665,-1286 665,-116 665,-116 665,-110 671,-104 677,-104"/>
<text text-anchor="middle" x="743" y="-1283.6" font-family="Helvetica,sans-Serif" font-size="13.00" fill="#2d3436">Google Cloud project</text>
</g>
<g id="clust3" class="cluster">
<title>cluster_Application services</title>
<path fill="#f7f8fa" stroke="#d9dee7" d="M685,-473C685,-473 1354,-473 1354,-473 1360,-473 1366,-479 1366,-485 1366,-485 1366,-693 1366,-693 1366,-699 1360,-705 1354,-705 1354,-705 685,-705 685,-705 679,-705 673,-699 673,-693 673,-693 673,-485 673,-485 673,-479 679,-473 685,-473"/>
<text text-anchor="middle" x="747.5" y="-690.6" font-family="Helvetica,sans-Serif" font-size="13.00" fill="#2d3436">Application services</text>
</g>
<g id="clust4" class="cluster">
<title>cluster_Execution plane</title>
<path fill="#eef6ff" stroke="#bfd8f4" d="M1641,-112C1641,-112 1740,-112 1740,-112 1746,-112 1752,-118 1752,-124 1752,-124 1752,-332 1752,-332 1752,-338 1746,-344 1740,-344 1740,-344 1641,-344 1641,-344 1635,-344 1629,-338 1629,-332 1629,-332 1629,-124 1629,-124 1629,-118 1635,-112 1641,-112"/>
<text text-anchor="middle" x="1690.5" y="-329.6" font-family="Helvetica,sans-Serif" font-size="13.00" fill="#2d3436">Execution plane</text>
</g>
<g id="clust5" class="cluster">
<title>cluster_Data and AI</title>
<path fill="#f7f8fa" stroke="#d9dee7" d="M1644,-378C1644,-378 1737,-378 1737,-378 1743,-378 1749,-384 1749,-390 1749,-390 1749,-1256 1749,-1256 1749,-1262 1743,-1268 1737,-1268 1737,-1268 1644,-1268 1644,-1268 1638,-1268 1632,-1262 1632,-1256 1632,-1256 1632,-390 1632,-390 1632,-384 1638,-378 1644,-378"/>
<text text-anchor="middle" x="1679.5" y="-1253.6" font-family="Helvetica,sans-Serif" font-size="13.00" fill="#2d3436">Data and AI</text>
</g>
<!-- be0f762151764ceab7ec8fda8b41530e -->
<g id="node1" class="node">
<title>be0f762151764ceab7ec8fda8b41530e</title>
<image xlink:href="/home/dark/.local/lib/python3.13/site-packages/resources/onprem/client/users.png" width="101px" height="101px" preserveAspectRatio="xMinYMin meet" x="0" y="-149.5"/>
<text text-anchor="middle" x="50.5" y="-31.2" font-family="Helvetica,sans-Serif" font-size="11.00" fill="#2d3436">Operators</text>
<text text-anchor="middle" x="50.5" y="-19.2" font-family="Helvetica,sans-Serif" font-size="11.00" fill="#2d3436">and teammates</text>
</g>
<!-- 850100e9edff49dcb05fd4f718300f40 -->
<g id="node2" class="node">
<title>850100e9edff49dcb05fd4f718300f40</title>
<image xlink:href="/home/dark/.local/lib/python3.13/site-packages/resources/gcp/network/cdn.png" width="101px" height="101px" preserveAspectRatio="xMinYMin meet" x="231" y="-149.5"/>
<text text-anchor="middle" x="281.5" y="-31.2" font-family="Helvetica,sans-Serif" font-size="11.00" fill="#2d3436">HTTPS edge</text>
<text text-anchor="middle" x="281.5" y="-19.2" font-family="Helvetica,sans-Serif" font-size="11.00" fill="#2d3436">static + cached assets</text>
</g>
<!-- be0f762151764ceab7ec8fda8b41530e&#45;&gt;850100e9edff49dcb05fd4f718300f40 -->
<g id="edge1" class="edge">
<title>be0f762151764ceab7ec8fda8b41530e&#45;&gt;850100e9edff49dcb05fd4f718300f40</title>
<path fill="none" stroke="#2b6cb0" stroke-width="1.8" d="M101.19,-99C101.19,-99 220.92,-99 220.92,-99"/>
<polygon fill="#2b6cb0" stroke="#2b6cb0" stroke-width="1.8" points="220.92,-102.5 230.92,-99 220.92,-95.5 220.92,-102.5"/>
<text text-anchor="middle" x="166" y="-102.6" font-family="Sans-Serif" font-size="13.00" fill="#2d3436">HTTPS</text>
</g>
<!-- a1745a60b60e425fa1bd3838c68bff7e -->
<g id="node3" class="node">
<title>a1745a60b60e425fa1bd3838c68bff7e</title>
<image xlink:href="/home/dark/.local/lib/python3.13/site-packages/resources/gcp/network/load-balancing.png" width="101px" height="101px" preserveAspectRatio="xMinYMin meet" x="423" y="-149.5"/>
<text text-anchor="middle" x="473.5" y="-31.2" font-family="Helvetica,sans-Serif" font-size="11.00" fill="#2d3436">Public routing</text>
<text text-anchor="middle" x="473.5" y="-19.2" font-family="Helvetica,sans-Serif" font-size="11.00" fill="#2d3436">web + sandbox access</text>
</g>
<!-- 850100e9edff49dcb05fd4f718300f40&#45;&gt;a1745a60b60e425fa1bd3838c68bff7e -->
<g id="edge2" class="edge">
<title>850100e9edff49dcb05fd4f718300f40&#45;&gt;a1745a60b60e425fa1bd3838c68bff7e</title>
<path fill="none" stroke="#2b6cb0" stroke-width="1.8" d="M332.2,-99C332.2,-99 412.85,-99 412.85,-99"/>
<polygon fill="#2b6cb0" stroke="#2b6cb0" stroke-width="1.8" points="412.85,-102.5 422.85,-99 412.85,-95.5 412.85,-102.5"/>
</g>
<!-- 06a909494b0d4725950c50bf1b2fec0f -->
<g id="node4" class="node">
<title>06a909494b0d4725950c50bf1b2fec0f</title>
<image xlink:href="/home/dark/.local/lib/python3.13/site-packages/resources/gcp/compute/run.png" width="101px" height="101px" preserveAspectRatio="xMinYMin meet" x="681" y="-628.5"/>
<text text-anchor="middle" x="731.5" y="-508.2" font-family="Helvetica,sans-Serif" font-size="11.00" fill="#2d3436">apps/web</text>
<text text-anchor="middle" x="731.5" y="-496.2" font-family="Helvetica,sans-Serif" font-size="11.00" fill="#2d3436">Cloud Run</text>
<text text-anchor="middle" x="731.5" y="-484.2" font-family="Helvetica,sans-Serif" font-size="11.00" fill="#2d3436">Next.js UI</text>
</g>
<!-- a1745a60b60e425fa1bd3838c68bff7e&#45;&gt;06a909494b0d4725950c50bf1b2fec0f -->
<g id="edge3" class="edge">
<title>a1745a60b60e425fa1bd3838c68bff7e&#45;&gt;06a909494b0d4725950c50bf1b2fec0f</title>
<path fill="none" stroke="#1f5c84" stroke-width="1.8" d="M524.26,-161.33C599.54,-161.33 732,-161.33 732,-161.33 732,-161.33 732,-470.84 732,-470.84"/>
<polygon fill="#1f5c84" stroke="#1f5c84" stroke-width="1.8" points="728.5,-470.84 732,-480.84 735.5,-470.84 728.5,-470.84"/>
<text text-anchor="middle" x="602.5" y="-370.6" font-family="Sans-Serif" font-size="13.00" fill="#2d3436">product UI</text>
</g>
<!-- bbf0f3942b7b4e01a91bdfe4bb4f0384 -->
<g id="node7" class="node">
<title>bbf0f3942b7b4e01a91bdfe4bb4f0384</title>
<image xlink:href="/home/dark/.local/lib/python3.13/site-packages/resources/gcp/compute/compute-engine.png" width="101px" height="101px" preserveAspectRatio="xMinYMin meet" x="1640" y="-267.5"/>
<text text-anchor="middle" x="1690.5" y="-147.2" font-family="Helvetica,sans-Serif" font-size="11.00" fill="#2d3436">Sandbox VM</text>
<text text-anchor="middle" x="1690.5" y="-135.2" font-family="Helvetica,sans-Serif" font-size="11.00" fill="#2d3436">Live browser view</text>
<text text-anchor="middle" x="1690.5" y="-123.2" font-family="Helvetica,sans-Serif" font-size="11.00" fill="#2d3436">Chromium + CDP + noVNC</text>
</g>
<!-- a1745a60b60e425fa1bd3838c68bff7e&#45;&gt;bbf0f3942b7b4e01a91bdfe4bb4f0384 -->
<g id="edge4" class="edge">
<title>a1745a60b60e425fa1bd3838c68bff7e&#45;&gt;bbf0f3942b7b4e01a91bdfe4bb4f0384</title>
<path fill="none" stroke="#2b6cb0" stroke-width="1.8" d="M524.24,-140.67C524.24,-140.67 1629.88,-140.67 1629.88,-140.67"/>
<polygon fill="#2b6cb0" stroke="#2b6cb0" stroke-width="1.8" points="1629.88,-144.17 1639.88,-140.67 1629.88,-137.17 1629.88,-144.17"/>
</g>
<!-- c5b3384a0ca64f5997c7c817aaef5460 -->
<g id="node5" class="node">
<title>c5b3384a0ca64f5997c7c817aaef5460</title>
<image xlink:href="/home/dark/.local/lib/python3.13/site-packages/resources/gcp/compute/run.png" width="101px" height="101px" preserveAspectRatio="xMinYMin meet" x="935" y="-628.5"/>
<text text-anchor="middle" x="985.5" y="-508.2" font-family="Helvetica,sans-Serif" font-size="11.00" fill="#2d3436">apps/api</text>
<text text-anchor="middle" x="985.5" y="-496.2" font-family="Helvetica,sans-Serif" font-size="11.00" fill="#2d3436">Cloud Run</text>
<text text-anchor="middle" x="985.5" y="-484.2" font-family="Helvetica,sans-Serif" font-size="11.00" fill="#2d3436">FastAPI orchestration</text>
</g>
<!-- 06a909494b0d4725950c50bf1b2fec0f&#45;&gt;c5b3384a0ca64f5997c7c817aaef5460 -->
<g id="edge5" class="edge">
<title>06a909494b0d4725950c50bf1b2fec0f&#45;&gt;c5b3384a0ca64f5997c7c817aaef5460</title>
<path fill="none" stroke="#1f5c84" stroke-width="1.8" d="M782.29,-578C782.29,-578 924.8,-578 924.8,-578"/>
<polygon fill="#1f5c84" stroke="#1f5c84" stroke-width="1.8" points="924.8,-581.5 934.8,-578 924.8,-574.5 924.8,-581.5"/>
<text text-anchor="middle" x="858.5" y="-581.6" font-family="Sans-Serif" font-size="13.00" fill="#2d3436">/api/proxy</text>
</g>
<!-- 867c71f91edd430ca8b3e13e871aa087 -->
<g id="node6" class="node">
<title>867c71f91edd430ca8b3e13e871aa087</title>
<image xlink:href="/home/dark/.local/lib/python3.13/site-packages/resources/gcp/compute/run.png" width="101px" height="101px" preserveAspectRatio="xMinYMin meet" x="1257" y="-628.5"/>
<text text-anchor="middle" x="1307.5" y="-508.2" font-family="Helvetica,sans-Serif" font-size="11.00" fill="#2d3436">apps/agent</text>
<text text-anchor="middle" x="1307.5" y="-496.2" font-family="Helvetica,sans-Serif" font-size="11.00" fill="#2d3436">Cloud Run</text>
<text text-anchor="middle" x="1307.5" y="-484.2" font-family="Helvetica,sans-Serif" font-size="11.00" fill="#2d3436">Stagehand fallback</text>
</g>
<!-- c5b3384a0ca64f5997c7c817aaef5460&#45;&gt;867c71f91edd430ca8b3e13e871aa087 -->
<g id="edge12" class="edge">
<title>c5b3384a0ca64f5997c7c817aaef5460&#45;&gt;867c71f91edd430ca8b3e13e871aa087</title>
<path fill="none" stroke="#1f5c84" stroke-width="1.8" d="M1036.17,-578C1036.17,-578 1246.86,-578 1246.86,-578"/>
<polygon fill="#1f5c84" stroke="#1f5c84" stroke-width="1.8" points="1246.86,-581.5 1256.86,-578 1246.86,-574.5 1246.86,-581.5"/>
<text text-anchor="middle" x="1130" y="-581.6" font-family="Sans-Serif" font-size="13.00" fill="#2d3436">fallback request</text>
</g>
<!-- c5b3384a0ca64f5997c7c817aaef5460&#45;&gt;bbf0f3942b7b4e01a91bdfe4bb4f0384 -->
<g id="edge11" class="edge">
<title>c5b3384a0ca64f5997c7c817aaef5460&#45;&gt;bbf0f3942b7b4e01a91bdfe4bb4f0384</title>
<path fill="none" stroke="#1b8b82" stroke-width="1.8" d="M969,-480.88C969,-376.69 969,-226 969,-226 969,-226 1629.77,-226 1629.77,-226"/>
<polygon fill="#1b8b82" stroke="#1b8b82" stroke-width="1.8" points="1629.77,-229.5 1639.77,-226 1629.77,-222.5 1629.77,-229.5"/>
<text text-anchor="middle" x="1307.5" y="-240.6" font-family="Sans-Serif" font-size="13.00" fill="#2d3436">selector path</text>
<text text-anchor="middle" x="1307.5" y="-226.6" font-family="Sans-Serif" font-size="13.00" fill="#2d3436">or sandbox mode</text>
</g>
<!-- a21ce52cc47d412ca327d130bf31ec90 -->
<g id="node8" class="node">
<title>a21ce52cc47d412ca327d130bf31ec90</title>
<image xlink:href="/home/dark/.local/lib/python3.13/site-packages/resources/gcp/database/sql.png" width="101px" height="101px" preserveAspectRatio="xMinYMin meet" x="1640" y="-1205.5"/>
<text text-anchor="middle" x="1690.5" y="-1087.2" font-family="Helvetica,sans-Serif" font-size="11.00" fill="#2d3436">Cloud SQL</text>
<text text-anchor="middle" x="1690.5" y="-1075.2" font-family="Helvetica,sans-Serif" font-size="11.00" fill="#2d3436">PostgreSQL</text>
</g>
<!-- c5b3384a0ca64f5997c7c817aaef5460&#45;&gt;a21ce52cc47d412ca327d130bf31ec90 -->
<g id="edge6" class="edge">
<title>c5b3384a0ca64f5997c7c817aaef5460&#45;&gt;a21ce52cc47d412ca327d130bf31ec90</title>
<path fill="none" stroke="#c96f23" stroke-width="1.8" d="M961,-675.23C961,-839.67 961,-1155 961,-1155 961,-1155 1629.78,-1155 1629.78,-1155"/>
<polygon fill="#c96f23" stroke="#c96f23" stroke-width="1.8" points="1629.78,-1158.5 1639.78,-1155 1629.78,-1151.5 1629.78,-1158.5"/>
<text text-anchor="middle" x="1307.5" y="-1169.6" font-family="Sans-Serif" font-size="13.00" fill="#2d3436">playbook CRUD</text>
<text text-anchor="middle" x="1307.5" y="-1155.6" font-family="Sans-Serif" font-size="13.00" fill="#2d3436">capture, runs, automations</text>
</g>
<!-- 849f2f5fd079436c9626836a1271858d -->
<g id="node9" class="node">
<title>849f2f5fd079436c9626836a1271858d</title>
<image xlink:href="/home/dark/.local/lib/python3.13/site-packages/resources/gcp/storage/storage.png" width="101px" height="101px" preserveAspectRatio="xMinYMin meet" x="1640" y="-967.5"/>
<text text-anchor="middle" x="1690.5" y="-849.2" font-family="Helvetica,sans-Serif" font-size="11.00" fill="#2d3436">Cloud Storage</text>
<text text-anchor="middle" x="1690.5" y="-837.2" font-family="Helvetica,sans-Serif" font-size="11.00" fill="#2d3436">Evidence bucket</text>
</g>
<!-- c5b3384a0ca64f5997c7c817aaef5460&#45;&gt;849f2f5fd079436c9626836a1271858d -->
<g id="edge7" class="edge">
<title>c5b3384a0ca64f5997c7c817aaef5460&#45;&gt;849f2f5fd079436c9626836a1271858d</title>
<path fill="none" stroke="#c96f23" stroke-width="1.8" d="M986,-675.14C986,-775.32 986,-917 986,-917 986,-917 1629.83,-917 1629.83,-917"/>
<polygon fill="#c96f23" stroke="#c96f23" stroke-width="1.8" points="1629.83,-920.5 1639.83,-917 1629.83,-913.5 1629.83,-920.5"/>
<text text-anchor="middle" x="1307.5" y="-994.6" font-family="Sans-Serif" font-size="13.00" fill="#2d3436">screenshots + evidence</text>
</g>
<!-- 2174434f2ca34fa29598546248fa24f1 -->
<g id="node10" class="node">
<title>2174434f2ca34fa29598546248fa24f1</title>
<image xlink:href="/home/dark/.local/lib/python3.13/site-packages/resources/gcp/security/secret-manager.png" width="101px" height="101px" preserveAspectRatio="xMinYMin meet" x="1640" y="-505.5"/>
<text text-anchor="middle" x="1690.5" y="-389.7" font-family="Helvetica,sans-Serif" font-size="11.00" fill="#2d3436">Secret Manager</text>
</g>
<!-- c5b3384a0ca64f5997c7c817aaef5460&#45;&gt;2174434f2ca34fa29598546248fa24f1 -->
<g id="edge8" class="edge">
<title>c5b3384a0ca64f5997c7c817aaef5460&#45;&gt;2174434f2ca34fa29598546248fa24f1</title>
<path fill="none" stroke="#1b8b82" stroke-width="1.8" d="M1003,-480.98C1003,-454.89 1003,-433.75 1003,-433.75 1003,-433.75 1629.95,-433.75 1629.95,-433.75"/>
<polygon fill="#1b8b82" stroke="#1b8b82" stroke-width="1.8" points="1629.95,-437.25 1639.95,-433.75 1629.95,-430.25 1629.95,-437.25"/>
<text text-anchor="middle" x="1307.5" y="-398.6" font-family="Sans-Serif" font-size="13.00" fill="#2d3436">runtime config + API keys</text>
</g>
<!-- a6a8d92b58dd4d9797b6528e7c16d3cc -->
<g id="node11" class="node">
<title>a6a8d92b58dd4d9797b6528e7c16d3cc</title>
<image xlink:href="/home/dark/.local/lib/python3.13/site-packages/resources/gcp/ml/vertex-ai.png" width="101px" height="101px" preserveAspectRatio="xMinYMin meet" x="1640" y="-729.5"/>
<text text-anchor="middle" x="1690.5" y="-611.2" font-family="Helvetica,sans-Serif" font-size="11.00" fill="#2d3436">Gemini API</text>
<text text-anchor="middle" x="1690.5" y="-599.2" font-family="Helvetica,sans-Serif" font-size="11.00" fill="#2d3436">vision + compile + agent</text>
</g>
<!-- c5b3384a0ca64f5997c7c817aaef5460&#45;&gt;a6a8d92b58dd4d9797b6528e7c16d3cc -->
<g id="edge9" class="edge">
<title>c5b3384a0ca64f5997c7c817aaef5460&#45;&gt;a6a8d92b58dd4d9797b6528e7c16d3cc</title>
<path fill="none" stroke="#1b8b82" stroke-width="1.8" d="M1011,-675.2C1011,-699.35 1011,-718.5 1011,-718.5 1011,-718.5 1629.98,-718.5 1629.98,-718.5"/>
<polygon fill="#1b8b82" stroke="#1b8b82" stroke-width="1.8" points="1629.98,-722 1639.98,-718.5 1629.98,-715 1629.98,-722"/>
<text text-anchor="middle" x="1307.5" y="-836.6" font-family="Sans-Serif" font-size="13.00" fill="#2d3436">frame analysis</text>
<text text-anchor="middle" x="1307.5" y="-822.6" font-family="Sans-Serif" font-size="13.00" fill="#2d3436">compile steps</text>
</g>
<!-- 867c71f91edd430ca8b3e13e871aa087&#45;&gt;bbf0f3942b7b4e01a91bdfe4bb4f0384 -->
<g id="edge13" class="edge">
<title>867c71f91edd430ca8b3e13e871aa087&#45;&gt;bbf0f3942b7b4e01a91bdfe4bb4f0384</title>
<path fill="none" stroke="#1b8b82" stroke-width="1.8" d="M1308,-480.97C1308,-390.69 1308,-270 1308,-270 1308,-270 1629.71,-270 1629.71,-270"/>
<polygon fill="#1b8b82" stroke="#1b8b82" stroke-width="1.8" points="1629.71,-273.5 1639.71,-270 1629.71,-266.5 1629.71,-273.5"/>
<text text-anchor="middle" x="1510" y="-532.6" font-family="Sans-Serif" font-size="13.00" fill="#2d3436">shared browser via CDP</text>
</g>
<!-- 867c71f91edd430ca8b3e13e871aa087&#45;&gt;a6a8d92b58dd4d9797b6528e7c16d3cc -->
<g id="edge10" class="edge">
<title>867c71f91edd430ca8b3e13e871aa087&#45;&gt;a6a8d92b58dd4d9797b6528e7c16d3cc</title>
<path fill="none" stroke="#1b8b82" stroke-width="1.8" d="M1358.36,-635.5C1358.36,-635.5 1629.74,-635.5 1629.74,-635.5"/>
<polygon fill="#1b8b82" stroke="#1b8b82" stroke-width="1.8" points="1629.74,-639 1639.74,-635.5 1629.74,-632 1629.74,-639"/>
<text text-anchor="middle" x="1510" y="-630.6" font-family="Sans-Serif" font-size="13.00" fill="#2d3436">autonomous reasoning</text>
</g>
</g>
</svg>
